<?xml version="1.0" encoding="utf-8"?>
<!-- Generator: Adobe Illustrator 28.1.0, SVG Export Plug-In . SVG Version: 6.00 Build 0)  -->
<svg version="1.1" id="Calque_1" xmlns="http://www.w3.org/2000/svg" xmlns:xlink="http://www.w3.org/1999/xlink" x="0px" y="0px"
	 viewBox="0 0 181.9 67.9" style="enable-background:new 0 0 181.9 67.9;" xml:space="preserve">
<style type="text/css">
	.st0{fill:#FFFFFF;}
</style>
<path class="st0" d="M0,18.9V49h32.9V37.2H13.4v-6.6h19.5V18.9H0z M0,11.8h32.9V0.1H0V11.8z"/>
<path class="st0" d="M66.4,0.1L50.2,18.9v11.7L66.6,49h16.6L62.4,24.4L83.1,0.1H66.4z"/>
<g transform="translate(0 0)">
	<g>
		<g>
			<path class="st0" d="M139.9,0.1H156c6.9,0,12.5,1.7,16.8,5.2c3.3,2.6,5.8,6.1,7.3,10c1.2,3,1.8,6.2,1.8,9.4
				c0.1,6-2.1,11.7-6.1,16.1c-2.5,3-5.8,5.3-9.5,6.6c-3.5,1.1-7.2,1.7-10.9,1.6h-15.6V30.7l13.4-12v18.7c2,0,4-0.3,6-0.8
				c1.5-0.5,2.9-1.2,4.1-2.2c1.4-1.2,2.6-2.7,3.3-4.4c0.8-1.7,1.2-3.6,1.2-5.6c0-1.9-0.4-3.8-1.3-5.6c-0.8-1.7-2-3.3-3.5-4.5
				c-1.2-1-2.6-1.7-4.1-2c-1.9-0.5-3.9-0.7-5.9-0.6h-13.4V0.1z"/>
			<path class="st0" d="M107.7,49c-13.5,0-24.5-11-24.5-24.5C83.2,11,94.1,0,107.7,0s24.5,11,24.5,24.5c0,0,0,0,0,0
				C132.1,38,121.2,48.9,107.7,49 M107.7,13.6c-6,0-10.8,4.9-10.8,10.8s4.9,10.8,10.8,10.8s10.8-4.9,10.8-10.8l0,0
				C118.5,18.5,113.6,13.7,107.7,13.6"/>
			<rect x="40.3" y="0.1" class="st0" width="9.7" height="11.7"/>
			<path class="st0" d="M40.3,37.2h9.8V49h-9.8V37.2z"/>
			<path class="st0" d="M0.2,67.8v-7.4h1.5v6.2h3.8v1.3H0.2z"/>
			<path class="st0" d="M6.5,60.3h1.4v1c0,0.3,0,0.7-0.1,1c-0.1,0.2-0.2,0.5-0.4,0.6c-0.2,0.2-0.5,0.4-0.8,0.5l-0.3-0.6
				c0.2-0.1,0.5-0.2,0.6-0.4c0.1-0.2,0.2-0.4,0.2-0.7H6.5L6.5,60.3z"/>
			<path class="st0" d="M9.5,67.8v-7.5H15v1.3h-4v1.7h3.8v1.3H11v2h4.2v1.3L9.5,67.8z M11.4,59.8l0.7-1.5h1.6l-1.4,1.5L11.4,59.8z"
				/>
			<path class="st0" d="M21.3,65l1.5,0.5c-0.2,0.7-0.6,1.4-1.1,1.8c-0.6,0.4-1.3,0.6-2,0.6c-0.9,0-1.8-0.3-2.5-1
				c-0.7-0.8-1-1.8-1-2.8c-0.1-1.1,0.3-2.1,1-2.9c0.7-0.7,1.6-1.1,2.5-1c0.8,0,1.6,0.3,2.2,0.8c0.4,0.4,0.6,0.9,0.8,1.4l-1.5,0.4
				c-0.1-0.8-0.8-1.3-1.6-1.3c-0.5,0-1,0.2-1.4,0.6c-0.4,0.6-0.6,1.3-0.5,1.9c-0.1,0.7,0.1,1.4,0.5,2c0.3,0.4,0.8,0.6,1.3,0.6
				c0.4,0,0.8-0.1,1-0.4C21,65.9,21.2,65.5,21.3,65"/>
			<path class="st0" d="M23.6,64.1c0-0.7,0.1-1.3,0.3-1.9c0.2-0.4,0.4-0.7,0.7-1c0.3-0.3,0.6-0.5,1-0.7c0.5-0.2,1.1-0.3,1.6-0.3
				c1,0,2,0.3,2.7,1c1.3,1.7,1.3,4,0,5.7c-0.7,0.7-1.7,1.1-2.6,1c-1,0-2-0.3-2.7-1C23.9,66.1,23.6,65.1,23.6,64.1 M25.2,64
				c-0.1,0.7,0.2,1.4,0.6,1.9c0.8,0.8,2,0.9,2.9,0.1c0,0,0.1-0.1,0.1-0.1c0.4-0.6,0.6-1.3,0.6-2c0.1-0.7-0.1-1.4-0.6-1.9
				c-0.8-0.8-2.1-0.8-3,0c0,0,0,0-0.1,0.1C25.3,62.6,25.1,63.3,25.2,64"/>
			<path class="st0" d="M32.2,67.8v-7.4h1.5v6.2h3.8v1.3H32.2z"/>
			<path class="st0" d="M38.5,67.8v-7.5h5.6v1.3h-4v1.7h3.8v1.3H40v2h4.2v1.3H38.5z"/>
			<path class="st0" d="M48.4,60.3h2.8c0.5,0,1,0,1.4,0.1c0.4,0.1,0.8,0.4,1.1,0.7c0.3,0.3,0.6,0.8,0.7,1.2c0.2,0.6,0.3,1.2,0.2,1.8
				c0,0.5-0.1,1.1-0.2,1.6c-0.2,0.5-0.4,1-0.8,1.3c-0.3,0.3-0.7,0.5-1.1,0.6c-0.4,0.1-0.9,0.2-1.3,0.2h-2.8V60.3z M50,61.5v5h1.1
				c0.3,0,0.6,0,0.9-0.1c0.2-0.1,0.4-0.2,0.6-0.3c0.2-0.2,0.3-0.5,0.4-0.7c0.1-0.4,0.2-0.9,0.2-1.4c0-0.5,0-0.9-0.2-1.3
				c-0.1-0.3-0.2-0.5-0.4-0.7c-0.2-0.2-0.4-0.3-0.7-0.4c-0.4-0.1-0.8-0.1-1.2-0.1H50z"/>
			<path class="st0" d="M55.9,67.8v-7.5h5.6v1.3h-4v1.7h3.8v1.3h-3.8v2h4.2v1.3H55.9z"/>
			<path class="st0" d="M62.5,65.3l1.5-0.1c0,0.4,0.2,0.8,0.5,1.1c0.3,0.2,0.7,0.4,1.1,0.3c0.4,0,0.8-0.1,1.1-0.3
				c0.2-0.2,0.4-0.4,0.4-0.7c0-0.2-0.1-0.3-0.2-0.5c-0.2-0.2-0.3-0.3-0.5-0.3c-0.2-0.1-0.6-0.2-1.2-0.3c-0.6-0.1-1.2-0.4-1.7-0.7
				c-0.4-0.4-0.7-0.9-0.7-1.5c0-0.4,0.1-0.8,0.3-1.1c0.2-0.3,0.6-0.6,0.9-0.8c0.5-0.2,1-0.3,1.5-0.3c0.8-0.1,1.5,0.2,2.1,0.6
				c0.5,0.4,0.8,1,0.7,1.7l-1.5,0.1c0-0.3-0.2-0.6-0.4-0.8c-0.3-0.2-0.6-0.3-1-0.3c-0.4,0-0.7,0.1-1,0.3c-0.2,0.1-0.2,0.3-0.2,0.5
				c0,0.2,0.1,0.3,0.2,0.5c0.4,0.3,0.9,0.4,1.4,0.5c0.6,0.1,1.1,0.3,1.6,0.5c0.3,0.2,0.6,0.4,0.8,0.8c0.2,0.4,0.3,0.8,0.3,1.2
				c0,0.4-0.1,0.8-0.4,1.2c-0.2,0.4-0.6,0.7-1,0.8c-0.5,0.2-1.1,0.3-1.6,0.3c-0.8,0.1-1.6-0.2-2.2-0.7
				C62.9,66.8,62.5,66.1,62.5,65.3"/>
			<path class="st0" d="M72.7,67.8v-7.5h2.3l1.4,5.1l1.3-5.1h2.3v7.5h-1.4v-5.9L77,67.8h-1.5l-1.5-5.9v5.9H72.7z"/>
			<path class="st0" d="M81.5,67.8v-7.5H87v1.3h-4v1.7h3.8v1.3H83v2h4.2v1.3L81.5,67.8z M83.4,59.8l0.7-1.5h1.6l-1.4,1.5L83.4,59.8z
				"/>
			<path class="st0" d="M90,67.8v-6.2h-2.2v-1.3h6v1.3h-2.2v6.2H90z"/>
			<rect x="94.7" y="60.3" class="st0" width="1.5" height="7.5"/>
			<path class="st0" d="M97.7,67.8v-7.5h5.6v1.3h-4v1.7h3.8v1.3h-3.8v2h4.2v1.3H97.7z"/>
			<path class="st0" d="M104.7,67.8v-7.5h3.2c0.6,0,1.2,0,1.7,0.2c0.4,0.1,0.7,0.4,0.9,0.7c0.2,0.4,0.3,0.8,0.3,1.2
				c0,0.5-0.2,1-0.5,1.4c-0.4,0.4-0.9,0.6-1.5,0.7c0.3,0.2,0.6,0.4,0.8,0.6c0.3,0.4,0.6,0.8,0.9,1.2l0.9,1.5h-1.8l-1.1-1.6
				c-0.2-0.4-0.5-0.8-0.8-1.1c-0.1-0.1-0.3-0.2-0.5-0.3c-0.2-0.1-0.5-0.1-0.8-0.1h-0.3v3.1H104.7z M106.2,63.4h1.1
				c0.5,0,0.9,0,1.4-0.1c0.2-0.1,0.3-0.2,0.4-0.3c0.1-0.2,0.2-0.4,0.2-0.6c0-0.2-0.1-0.4-0.2-0.6c-0.1-0.2-0.4-0.3-0.6-0.3
				c-0.1,0-0.5,0-1.1,0h-1.2V63.4z"/>
			<path class="st0" d="M111.8,65.3l1.5-0.1c0,0.4,0.2,0.8,0.5,1.1c0.3,0.2,0.7,0.4,1.1,0.3c0.4,0,0.8-0.1,1.1-0.3
				c0.2-0.2,0.4-0.4,0.4-0.7c0-0.2-0.1-0.3-0.2-0.5c-0.2-0.2-0.3-0.3-0.5-0.3c-0.2-0.1-0.6-0.2-1.2-0.3c-0.6-0.1-1.2-0.4-1.7-0.7
				c-0.4-0.4-0.7-0.9-0.7-1.5c0-0.4,0.1-0.8,0.3-1.1c0.2-0.3,0.6-0.6,0.9-0.8c0.5-0.2,1-0.3,1.5-0.3c0.8-0.1,1.5,0.2,2.1,0.6
				c0.5,0.4,0.8,1,0.7,1.7l-1.5,0.1c0-0.3-0.2-0.6-0.4-0.8c-0.3-0.2-0.6-0.3-1-0.3c-0.4,0-0.7,0.1-1,0.3c-0.2,0.1-0.2,0.3-0.2,0.5
				c0,0.2,0.1,0.3,0.2,0.5c0.4,0.3,0.9,0.4,1.4,0.5c0.6,0.1,1.1,0.3,1.6,0.5c0.3,0.2,0.6,0.4,0.8,0.8c0.2,0.4,0.3,0.8,0.3,1.2
				c0,0.4-0.1,0.8-0.4,1.2c-0.2,0.4-0.6,0.7-1,0.8c-0.5,0.2-1.1,0.3-1.6,0.3c-0.8,0.1-1.6-0.2-2.2-0.7
				C112.2,66.7,111.9,66.1,111.8,65.3"/>
			<path class="st0" d="M122.1,60.3h2.8c0.5,0,1,0,1.4,0.1c0.4,0.1,0.8,0.4,1.1,0.7c0.3,0.3,0.6,0.8,0.7,1.2
				c0.2,0.6,0.3,1.2,0.2,1.8c0,0.5-0.1,1.1-0.2,1.6c-0.2,0.5-0.4,1-0.8,1.3c-0.3,0.3-0.7,0.5-1.1,0.6c-0.4,0.1-0.9,0.2-1.3,0.2h-2.8
				L122.1,60.3z M123.6,61.5v5h1.1c0.3,0,0.6,0,0.9-0.1c0.2-0.1,0.4-0.2,0.6-0.3c0.2-0.2,0.3-0.5,0.4-0.7c0.1-0.4,0.2-0.9,0.2-1.4
				c0-0.5,0-0.9-0.2-1.3c-0.1-0.3-0.2-0.5-0.4-0.7c-0.2-0.2-0.4-0.3-0.7-0.4c-0.4-0.1-0.8-0.1-1.2-0.1H123.6z"/>
			<path class="st0" d="M129.7,60.3h1.5v4.1c0,0.4,0,0.8,0.1,1.3c0.1,0.3,0.2,0.6,0.5,0.7c0.3,0.2,0.6,0.3,1,0.3
				c0.3,0,0.7-0.1,1-0.3c0.2-0.2,0.3-0.4,0.4-0.6c0.1-0.4,0.1-0.8,0.1-1.3v-4.1h1.5v3.9c0,0.6,0,1.3-0.1,1.9
				c-0.1,0.3-0.2,0.7-0.5,0.9c-0.2,0.3-0.5,0.5-0.9,0.6c-0.5,0.2-0.9,0.2-1.4,0.2c-0.6,0-1.1-0.1-1.6-0.2c-0.3-0.1-0.6-0.4-0.9-0.6
				c-0.2-0.2-0.3-0.5-0.4-0.8c-0.1-0.6-0.2-1.3-0.1-1.9L129.7,60.3z"/>
			<path class="st0" d="M140.1,60.3h2.8c0.5,0,1,0,1.4,0.1c0.4,0.1,0.8,0.4,1.1,0.7c0.3,0.3,0.6,0.8,0.7,1.2
				c0.2,0.6,0.3,1.2,0.2,1.8c0,0.5-0.1,1.1-0.2,1.6c-0.2,0.5-0.4,1-0.8,1.3c-0.3,0.3-0.7,0.5-1.1,0.6c-0.4,0.1-0.9,0.2-1.3,0.2h-2.8
				L140.1,60.3z M141.6,61.5v5h1.1c0.3,0,0.6,0,0.9-0.1c0.2-0.1,0.4-0.2,0.6-0.3c0.2-0.2,0.3-0.5,0.4-0.7c0.1-0.4,0.2-0.9,0.2-1.4
				c0-0.5,0-0.9-0.2-1.3c-0.1-0.3-0.2-0.5-0.4-0.7c-0.2-0.2-0.4-0.3-0.7-0.4c-0.4-0.1-0.8-0.1-1.2-0.1H141.6z"/>
			<rect x="147.6" y="60.3" class="st0" width="1.5" height="7.5"/>
			<path class="st0" d="M154,65v-1.3h3.3v3c-0.4,0.4-0.9,0.6-1.4,0.8c-0.6,0.2-1.2,0.3-1.8,0.3c-0.7,0-1.4-0.2-2-0.5
				c-0.6-0.3-1-0.8-1.3-1.4c-0.3-0.6-0.4-1.3-0.4-2c0-0.7,0.2-1.4,0.5-2.1c0.3-0.6,0.8-1.1,1.4-1.4c0.6-0.3,1.2-0.4,1.8-0.4
				c0.8,0,1.5,0.2,2.2,0.6c0.5,0.4,0.9,1,1,1.6l-1.5,0.3c-0.1-0.4-0.3-0.7-0.6-0.9c-0.3-0.2-0.7-0.3-1.1-0.3c-0.6,0-1.2,0.2-1.6,0.6
				c-0.4,0.5-0.6,1.2-0.6,1.9c-0.1,0.7,0.2,1.4,0.6,2c0.4,0.4,1,0.7,1.6,0.7c0.3,0,0.7-0.1,1-0.2c0.3-0.1,0.6-0.3,0.8-0.5v-1L154,65
				z"/>
			<rect x="158.6" y="60.3" class="st0" width="1.5" height="7.5"/>
			<path class="st0" d="M163.3,67.8v-6.2H161v-1.3h6v1.3h-2.2v6.2H163.3z"/>
			<path class="st0" d="M174.6,67.8H173l-0.7-1.7h-3l-0.6,1.7h-1.6l2.9-7.5h1.6L174.6,67.8z M171.9,64.8l-1-2.8l-1,2.8L171.9,64.8z"
				/>
			<path class="st0" d="M175.5,67.8v-7.4h1.5v6.2h3.8v1.3H175.5z"/>
		</g>
	</g>
</g>
</svg>
